<svg xmlns="http://www.w3.org/2000/svg" viewBox="0 0 32 32"><g id="g-s-d7fb0fad"><rect x="-16.00" y="-16.00" width="32.00" height="32.00" id="s-d7fb0fad" fill="#a0a0a0" transform="translate(16.00, 16.00)"/></g><g id="g-s-8fa5e026"><rect x="-7.00" y="-3.00" width="14.00" height="6.00" id="s-8fa5e026" fill="#b43c28" transform="translate(8.00, 4.00)"/></g><g id="g-s-25e61c2f"><rect x="-7.00" y="-3.00" width="14.00" height="6.00" id="s-25e61c2f" fill="#b43c28" transform="translate(24.00, 4.00)"/></g><g id="g-s-9521cf05"><rect x="-3.50" y="-3.00" width="7.00" height="6.00" id="s-9521cf05" fill="#b43c28" transform="translate(3.50, 12.00)"/></g><g id="g-s-a7bab674"><rect x="-7.00" y="-3.00" width="14.00" height="6.00" id="s-a7bab674" fill="#b43c28" transform="translate(16.00, 12.00)"/></g><g id="g-s-cda07558"><rect x="-3.50" y="-3.00" width="7.00" height="6.00" id="s-cda07558" fill="#b43c28" transform="translate(28.50, 12.00)"/></g><g id="g-s-bdc657ff"><rect x="-7.00" y="-3.00" width="14.00" height="6.00" id="s-bdc657ff" fill="#b43c28" transform="translate(8.00, 20.00)"/></g><g id="g-s-772c0297"><rect x="-7.00" y="-3.00" width="14.00" height="6.00" id="s-772c0297" fill="#b43c28" transform="translate(24.00, 20.00)"/></g><g id="g-s-f8e8d22a"><rect x="-3.50" y="-3.00" width="7.00" height="6.00" id="s-f8e8d22a" fill="#b43c28" transform="translate(3.50, 28.00)"/></g><g id="g-s-ca266c6a"><rect x="-7.00" y="-3.00" width="14.00" height="6.00" id="s-ca266c6a" fill="#b43c28" transform="translate(16.00, 28.00)"/></g><g id="g-s-c03cf5de"><rect x="-3.50" y="-3.00" width="7.00" height="6.00" id="s-c03cf5de" fill="#b43c28" transform="translate(28.50, 28.00)"/></g></svg>