<svg xmlns="http://www.w3.org/2000/svg" viewBox="0 0 32 32"><g id="g-s-a999b490"><rect x="-16.00" y="-16.00" width="32.00" height="32.00" id="s-a999b490" fill="#a0a0a0" transform="translate(16.00, 16.00)"/></g><g id="g-s-aa1f1692"><rect x="-3.50" y="-3.00" width="7.00" height="6.00" id="s-aa1f1692" fill="#b43c28" transform="translate(28.50, 12.00)"/></g><g id="g-s-d6c2974d"><rect x="-3.50" y="-3.00" width="7.00" height="6.00" id="s-d6c2974d" fill="#b43c28" transform="translate(28.50, 28.00)"/></g><g id="g-s-20624346"><rect x="-7.00" y="-3.00" width="14.00" height="6.00" id="s-20624346" fill="#b43c28" transform="translate(8.00, 4.00)"/></g><g id="g-s-8e208212"><rect x="-7.00" y="-3.00" width="14.00" height="6.00" id="s-8e208212" fill="#b43c28" transform="translate(24.00, 4.00)"/></g><g id="g-s-550d3628"><rect x="-3.50" y="-3.00" width="7.00" height="6.00" id="s-550d3628" fill="#b43c28" transform="translate(3.50, 12.00)"/></g><g id="g-s-bec341ef"><rect x="-7.00" y="-3.00" width="14.00" height="6.00" id="s-bec341ef" fill="#b43c28" transform="translate(16.00, 12.00)"/></g><g id="g-s-c063c414"><rect x="-7.00" y="-3.00" width="14.00" height="6.00" id="s-c063c414" fill="#b43c28" transform="translate(8.00, 20.00)"/></g><g id="g-s-932f39c2"><rect x="-7.00" y="-3.00" width="14.00" height="6.00" id="s-932f39c2" fill="#b43c28" transform="translate(24.00, 20.00)"/></g><g id="g-s-9c57d9fa"><rect x="-3.50" y="-3.00" width="7.00" height="6.00" id="s-9c57d9fa" fill="#b43c28" transform="translate(3.50, 28.00)"/></g><g id="g-s-2d4a3fab"><rect x="-7.00" y="-3.00" width="14.00" height="6.00" id="s-2d4a3fab" fill="#b43c28" transform="translate(16.00, 28.00)"/></g></svg>