<svg xmlns="http://www.w3.org/2000/svg" viewBox="0 0 32 32"><g id="g-s-6d4dd3a3"><rect x="-16.00" y="-16.00" width="32.00" height="32.00" id="s-6d4dd3a3" fill="#1e1e1e" transform="translate(16.00, 16.00)"/></g><g id="g-s-b612fa40"><path d="M -7.37 -8.41 C -5.75 -8.95 -6.15 -7.74 -5.87 -6.91 L -4.37 -6.41 C -2.84 -5.90 -4.75 -4.41 -2.37 -4.41 C 0.18 -4.41 3.32 -3.50 4.13 -5.91 L 6.13 -6.91 L 6.63 -8.41 C 8.04 -8.88 8.93 -6.84 7.63 -6.41 C 7.24 -6.28 4.44 -5.14 6.63 -4.41 L 8.13 -3.91 L 8.63 -2.41 C 10.46 -1.80 9.79 -1.02 11.63 -0.41 L 12.13 3.09 C 12.13 4.14 12.49 6.21 10.63 5.59 L 10.13 2.09 L 8.13 2.09 L 8.13 4.09 C 8.13 6.46 6.64 4.56 6.13 6.09 C 5.56 7.80 5.67 7.59 3.63 7.59 C 2.65 7.59 0.89 6.17 2.63 5.59 C 3.65 5.25 6.92 6.46 6.13 4.09 L -5.37 3.59 L -5.37 5.59 L -3.37 5.59 C -2.40 5.59 -0.64 7.01 -2.37 7.59 L -5.87 7.09 L -6.37 5.59 L -7.87 5.09 C -8.22 4.07 -7.00 0.80 -9.37 1.59 L -9.87 5.09 C -10.45 6.83 -11.87 5.06 -11.87 4.09 L -11.87 0.09 L -9.87 -0.91 L -9.37 -2.41 L -7.87 -2.91 L -7.37 -4.41 C -6.99 -4.54 -4.19 -5.68 -6.37 -6.41 C -6.76 -6.54 -9.56 -7.68 -7.37 -8.41 Z" fill-rule="evenodd" id="s-b612fa40" fill="#dc143c" transform="translate(15.87, 16.41)"/></g><g id="g-s-5dd65bb6"><circle cx="0.00" cy="0.00" r="1.12" id="s-5dd65bb6" fill="#ffffff" transform="translate(11.00, 15.00)"/></g><g id="g-s-17b2da65"><circle cx="0.00" cy="0.00" r="1.12" id="s-17b2da65" fill="#ffffff" transform="translate(21.00, 15.00)"/></g></svg>