<svg xmlns="http://www.w3.org/2000/svg" viewBox="0 0 256 256"><g id="g-s-8bcd62ea"><rect x="-128.00" y="-128.00" width="256.00" height="256.00" id="s-8bcd62ea" fill="#ffffff" transform="translate(128.00, 128.00)"/></g><g id="g-s-d2954f28"><path d="M -95.71 -96.19 L 28.79 -95.69 L 29.29 -46.19 L 36.29 -46.19 L 38.29 -45.19 L 46.29 -44.19 L 48.29 -43.19 L 51.29 -43.19 L 52.29 -42.19 L 56.29 -41.19 L 68.29 -35.19 L 82.29 -24.19 L 90.79 -13.69 L 97.79 -1.69 C 98.31 -0.11 98.03 1.56 99.29 2.81 L 102.79 15.31 L 102.79 18.31 L 103.79 20.31 L 103.79 36.31 L 102.79 38.31 L 101.79 46.31 L 100.79 48.31 L 100.79 51.31 L 99.79 52.31 L 98.79 56.31 L 92.79 68.31 L 81.79 82.31 L 71.29 90.81 L 59.29 97.81 C 57.71 98.34 56.04 98.06 54.79 99.31 L 42.29 102.81 L 39.29 102.81 L 37.29 103.81 L 21.29 103.81 L 19.29 102.81 L 11.29 101.81 L 9.29 100.81 L 6.29 100.81 L 5.29 99.81 L 1.29 98.81 L -10.71 92.81 L -24.71 81.81 L -33.21 71.31 L -40.21 59.31 C -40.74 57.74 -40.46 56.07 -41.71 54.81 L -45.21 42.31 L -45.21 39.31 L -46.21 37.31 L -46.71 28.81 L -96.21 28.31 L -95.71 -96.19 Z" fill-rule="evenodd" id="s-d2954f28" fill="#0000ff" transform="translate(146.21, 146.19)"/></g><g id="g-s-e2c5b5e4"><circle cx="0.00" cy="0.00" r="75.04" id="s-e2c5b5e4" fill="#ffff00" transform="translate(175.00, 175.00)"/></g></svg>