<svg xmlns="http://www.w3.org/2000/svg" viewBox="0 0 256 256"><g id="g-s-8bcd62ea"><rect x="-128.00" y="-128.00" width="256.00" height="256.00" id="s-8bcd62ea" fill="#ffffff" transform="translate(128.00, 128.00)"/></g><g id="g-s-a16c61c6"><path d="M -4.53 -86.85 L 8.47 -86.85 L 20.47 -85.85 L 35.47 -81.85 L 56.78 -71.35 L 70.97 -60.35 C 73.26 -58.06 75.09 -55.82 77.00 -53.35 L 85.97 -42.35 L 92.29 -30.35 C 93.68 -27.11 94.89 -24.58 95.97 -21.35 L 96.97 -20.35 L 101.42 -0.35 L 101.97 4.65 L 101.47 10.16 C 99.60 12.04 98.97 9.44 98.97 7.65 L 96.47 -8.52 L 91.97 -23.35 L 85.64 -36.35 L 74.93 -51.35 L 61.97 -63.35 L 54.47 -68.85 L 41.97 -75.35 C 40.73 -76.58 39.02 -76.33 37.47 -76.85 L 36.47 -77.85 L 22.47 -81.85 L 19.47 -81.85 L 17.47 -82.82 L 5.47 -83.52 L -5.53 -82.85 C -9.42 -82.85 -12.90 -81.84 -16.53 -80.85 L -22.53 -79.85 L -26.53 -77.85 C -28.26 -77.27 -30.09 -77.43 -31.71 -76.35 L -40.03 -72.35 L -43.53 -69.85 C -46.05 -69.01 -49.57 -66.81 -51.53 -64.85 L -58.53 -58.85 C -62.84 -54.55 -67.18 -50.52 -70.03 -45.35 L -75.03 -37.35 L -79.53 -28.85 L -83.03 -19.35 L -86.03 -3.35 L -86.03 15.65 L -84.03 23.65 L -84.00 26.65 L -81.03 35.65 L -80.03 36.65 L -77.03 44.65 L -66.53 60.15 L -57.03 69.65 L -46.00 77.65 L -33.22 83.65 C -31.82 84.79 -30.19 84.70 -28.53 85.15 L -18.53 88.15 L -6.53 89.15 L 5.64 88.65 L 21.47 85.15 L 25.47 83.15 C 34.03 80.30 42.14 75.48 48.97 68.65 C 53.48 64.14 57.99 60.04 60.97 54.65 L 65.97 46.65 L 71.97 30.65 L 71.97 27.65 C 72.95 24.06 73.36 20.36 73.97 16.65 L 73.97 9.65 L 71.97 -3.35 L 69.93 -11.35 L 65.97 -20.35 L 58.47 -31.82 L 45.64 -44.35 L 29.47 -53.82 L 14.47 -57.85 L 2.47 -58.52 L -2.53 -57.85 C -4.94 -57.85 -6.40 -57.43 -8.53 -56.85 L -11.53 -56.85 L -18.53 -54.85 L -27.53 -50.85 L -35.53 -45.82 L -38.53 -42.85 C -40.94 -40.44 -43.31 -39.48 -45.03 -36.35 L -50.53 -29.85 C -52.66 -27.73 -54.16 -23.96 -55.03 -21.35 L -59.03 -12.35 L -61.03 -1.35 L -61.03 10.65 L -59.03 21.65 L -55.53 31.15 L -45.53 46.12 L -38.53 52.15 C -36.42 54.26 -33.16 56.28 -30.53 57.15 L -21.53 61.15 L -11.53 63.42 C -7.64 64.46 -3.61 64.15 0.47 64.15 L 11.47 62.15 L 12.47 61.15 L 16.47 60.15 L 20.47 58.15 C 22.93 57.33 26.07 55.55 27.97 53.65 L 34.97 47.65 L 40.47 40.15 C 41.91 38.71 42.38 37.42 42.97 35.65 L 47.97 22.65 L 48.64 10.65 L 46.97 -0.35 L 42.97 -9.35 L 38.47 -16.82 L 31.93 -23.35 L 19.47 -30.52 L 12.47 -32.82 L 4.47 -33.49 L -4.53 -32.82 L -6.53 -31.85 C -8.76 -31.85 -9.64 -30.76 -11.53 -30.03 C -13.07 -29.45 -14.86 -29.52 -16.03 -28.35 L -23.53 -22.85 C -25.54 -20.84 -28.14 -18.87 -29.03 -16.35 L -34.03 -8.35 L -36.03 -0.35 L -36.03 9.65 L -35.03 14.65 L -31.53 23.15 L -25.53 30.15 C -23.32 32.36 -21.32 34.22 -18.53 35.15 L -11.53 38.15 L -8.66 38.65 C -5.40 39.53 -1.56 39.46 1.47 38.34 L 7.47 37.15 L 11.47 34.82 L 17.97 28.65 C 22.36 24.26 24.59 16.11 23.64 9.65 C 23.25 7.01 21.85 2.54 19.97 0.65 C 17.97 -1.35 16.65 -4.79 13.47 -5.85 C 10.21 -6.93 7.28 -8.52 3.47 -8.52 C 0.15 -8.52 -2.67 -6.80 -5.53 -5.85 C -7.86 -5.07 -10.44 -0.36 -11.03 1.65 C -11.55 3.39 -11.41 5.27 -11.03 6.65 C -10.51 8.55 -11.09 9.59 -9.53 11.15 C -8.06 12.63 -7.70 13.57 -5.53 14.15 C -3.45 14.71 -0.76 15.13 -0.03 12.65 L 0.47 11.48 C -0.80 10.94 -3.06 9.68 -1.53 8.15 C 1.25 5.36 5.06 10.38 3.97 13.65 C 2.91 16.82 -1.89 18.15 -4.53 18.15 C -11.64 18.15 -15.03 9.52 -15.03 3.65 L -11.03 -5.35 L -3.53 -10.85 L 2.47 -11.85 L 10.47 -10.85 L 16.47 -7.85 L 22.97 -1.35 L 26.97 7.65 L 26.97 17.65 L 24.97 24.65 L 16.47 35.15 C 14.52 37.10 11.27 39.38 8.47 40.15 L 3.47 41.97 L -8.53 42.15 L -18.53 39.15 L -22.53 37.15 L -29.53 31.15 C -31.82 28.86 -33.57 26.31 -35.03 23.65 L -38.36 14.65 C -39.16 12.78 -39.09 10.77 -39.31 8.65 L -40.03 3.65 C -39.47 1.63 -39.03 -0.06 -39.03 -2.35 L -38.03 -7.35 L -36.03 -12.35 L -28.53 -22.85 L -21.53 -28.85 L -13.03 -33.35 C -11.56 -34.83 -9.38 -34.25 -7.53 -34.88 L -2.53 -36.18 C 0.55 -36.68 5.16 -37.75 8.47 -36.85 L 23.97 -32.35 L 35.47 -24.85 L 40.97 -18.35 C 43.27 -15.97 45.06 -13.23 46.29 -10.35 L 50.97 1.65 L 51.29 4.65 C 52.02 6.35 51.97 7.71 51.97 9.65 L 50.97 24.65 L 48.97 31.65 L 47.97 32.65 L 46.97 36.65 L 41.97 44.65 L 36.47 51.15 L 33.00 53.65 C 23.00 63.32 9.70 67.29 -4.53 67.48 L -16.53 66.15 C -18.24 66.15 -18.25 65.58 -19.53 65.15 L -26.53 63.15 C -29.23 62.41 -32.98 60.70 -35.03 58.65 L -42.03 53.65 C -46.51 49.18 -50.62 44.77 -54.53 39.97 L -61.03 27.65 L -63.53 17.48 L -65.03 5.65 L -64.03 -6.35 L -63.03 -8.35 L -62.85 -11.35 L -57.53 -24.85 L -50.03 -36.35 L -37.03 -48.35 L -29.36 -53.35 L -20.53 -57.66 L -10.36 -60.35 L 0.47 -61.85 C 4.59 -61.85 8.62 -61.81 12.47 -61.18 L 21.47 -59.85 L 25.47 -58.85 L 26.47 -57.85 L 28.97 -57.35 C 30.20 -56.12 31.91 -56.37 33.47 -55.85 L 45.47 -48.85 L 48.47 -45.88 C 51.14 -44.97 53.36 -41.96 55.47 -39.85 L 61.47 -32.88 L 66.47 -25.85 L 72.97 -12.35 L 74.00 -7.35 C 74.43 -6.09 74.94 -6.00 74.97 -4.35 L 75.97 -2.35 L 76.97 21.65 L 73.47 36.97 L 69.97 46.65 L 59.97 61.65 C 54.41 69.03 47.74 74.65 40.29 79.65 L 31.47 84.48 C 28.45 85.77 25.69 87.62 22.47 88.15 L 12.47 91.15 L 9.47 91.18 L 7.47 92.15 L -11.53 92.15 C -13.95 92.15 -15.43 91.82 -17.53 91.18 L -20.53 91.15 L -32.85 87.65 L -41.53 84.15 L -49.53 79.15 C -52.19 77.15 -54.65 75.98 -57.07 73.65 L -67.03 64.65 L -69.53 61.18 C -74.04 56.53 -77.47 51.32 -80.03 45.65 L -87.03 27.65 L -89.03 19.65 L -90.03 4.65 L -89.03 -7.35 L -87.03 -17.35 C -87.03 -19.05 -85.59 -20.81 -85.07 -22.35 L -84.03 -27.35 L -80.03 -36.35 L -70.03 -51.35 L -60.53 -61.85 L -57.07 -64.35 C -52.69 -68.58 -47.62 -72.04 -42.53 -74.85 L -25.03 -82.35 L -17.53 -84.85 L -14.53 -84.85 C -12.70 -85.15 -11.59 -85.85 -9.53 -85.85 L -4.53 -86.85 Z" fill-rule="evenodd" id="s-a16c61c6" fill="#222222" transform="translate(128.03, 118.85)"/></g></svg>